<?xml version="1.0" standalone="no"?>
<svg viewBox="0 0 200 200" xmlns="http://www.w3.org/2000/svg">
  <path fill="#E9B57D" d="M23.4,-44.3C32.9,-35,45,-34,53.5,-28C62.1,-21.9,67.2,-11,69.1,1.1C71,13.2,69.8,26.4,61.3,32.6C52.8,38.8,37.1,37.9,25.7,37.7C14.3,37.4,7.1,37.7,0.6,36.6C-5.9,35.5,-11.8,33.1,-22.6,33C-33.4,32.9,-49.2,35.2,-53.9,30.1C-58.6,25,-52.3,12.5,-45.2,4.1C-38.2,-4.4,-30.4,-8.7,-29.4,-20.2C-28.4,-31.7,-34.1,-50.3,-30.3,-62.9C-26.6,-75.5,-13.3,-82,-3.2,-76.5C6.9,-71,13.9,-53.6,23.4,-44.3Z" transform="translate(100 100)" />
</svg>
